# xmcd
#
# Track frame offsets: 
#        150
#        11395
#        24210
#        37045
#        55360
#        66670
#        79527
#        91560
#        101517
#        114560
#        129005
#        144050
#        157710
#        172917
#        185547
#        200110
#        212522
#        226317
#        240937
#        252107
#        277152
#        290415
#        307975
#
# Disc length: 4241 seconds
#
# Revision: 2
# Processed by: cddbd v1.5.2PL0 Copyright (c) Steve Scherf et al.
# Submitted via: ExactAudioCopy v0.95b4
#
DISCID=23108f17
DTITLE=Dinah Washington - The Classic, CD2 - This Bitter Earth
DYEAR=1999
DGENRE=Blues
TTITLE0=This Bitter Earth
TTITLE1=I Wanna Be Loved
TTITLE2=Trouble in Mind
TTITLE3=You Don't Know What Love Is
TTITLE4=What a Diff'rence a Day Makes
TTITLE5=Baby Get Lost
TTITLE6=Since I Fell for You
TTITLE7=Love for Sale
TTITLE8=Evil Gal Blues
TTITLE9=I Don't Hurt Anymore
TTITLE10=Feel Like I Wanna Cry
TTITLE11=Please Send Me Someone to Love
TTITLE12=I Won't Cry Anymore
TTITLE13=Tears to Burn
TTITLE14=I Could Have Told You
TTITLE15=I'll Never Be Free
TTITLE16=Salty Papa Blues
TTITLE17=Am I Blue
TTITLE18=Cry Me a River
TTITLE19=Make the Man Love Me
TTITLE20=When a Woman Loves a Man
TTITLE21=More Than You Know
TTITLE22=There Is No Greater Love
EXTD=
EXTT0=
EXTT1=
EXTT2=
EXTT3=
EXTT4=
EXTT5=
EXTT6=
EXTT7=
EXTT8=
EXTT9=
EXTT10=
EXTT11=
EXTT12=
EXTT13=
EXTT14=
EXTT15=
EXTT16=
EXTT17=
EXTT18=
EXTT19=
EXTT20=
EXTT21=
EXTT22=
PLAYORDER=
